# xmcd
#
# Track frame offsets: 
#        150
#        7349
#        24200
#        39794
#        58388
#        76139
#        103549
#        122234
#        143263
#        156034
#        194988
#        207609
#        228614
#        254785
#
# Disc length: 3694 seconds
#
# Revision: 0
# Processed by: cddbd v1.5.2PL0 Copyright (c) Steve Scherf et al.
# Submitted via: ExactAudioCopyFreeDBPlugin 1.0
#
DISCID=c60e6c0e
DTITLE=Natalia Sikora - Buried Alive In The Blues
DYEAR=2016
DGENRE=Blues
TTITLE0=Janis Joplin - Mercedes Benz
TTITLE1=Louis Thomas Hardin - All Is Loneliness
TTITLE2=Sam Andrew - Flower In The Sun
TTITLE3=Johanna Hall, John Hall - Half Moon
TTITLE4=Bert Berns, Jerry Ragovoy - Piece Of My Hart
TTITLE5=Janis Joplin - Turtle Blues
TTITLE6=Janis Joplin - Move Over
TTITLE7=Lorenz Hart, Richard Rodgers - Little Girl Blue
TTITLE8=Janis Joplin - The Last Time
TTITLE9=Willie Mae Thornton - Ball And Chain
TTITLE10=Natalia Sikora, Anna Lawienska - Buried Alive In The Blues
TTITLE11=DuBose Heyward - Summertime
TTITLE12=Janis Joplin - I Need A Man To Love Me
TTITLE13=Chip Taylor, Jerry Ragovoy - Try
EXTD=
EXTT0=
EXTT1=
EXTT2=
EXTT3=
EXTT4=
EXTT5=
EXTT6=
EXTT7=
EXTT8=
EXTT9=
EXTT10=
EXTT11=
EXTT12=
EXTT13=
PLAYORDER=
